<svg id="backpack" enable-background="new 0 0 300 300" height="512" viewBox="0 0 300 300" width="512" xmlns="http://www.w3.org/2000/svg"><circle cx="126" cy="118" fill="#e5efef" r="92"/><path d="m218 82h-52c-2.211 0-4-1.791-4-4v-22c0-16.543 13.457-30 30-30s30 13.457 30 30v22c0 2.209-1.789 4-4 4zm-48-8h44v-18c0-12.131-9.871-22-22-22s-22 9.869-22 22z" fill="#4c241d"/><path d="m262 122h-28v-56h20.475c4.156 0 7.525 3.369 7.525 7.525z" fill="#bf7e68"/><path d="m262 126h-28c-2.211 0-4-1.791-4-4v-56c0-2.209 1.789-4 4-4h20.473c6.355 0 11.527 5.17 11.527 11.525v48.475c0 2.209-1.789 4-4 4zm-24-8h20v-44.475c0-1.943-1.582-3.525-3.527-3.525h-16.473z" fill="#4c241d"/><path d="m122 122h28v-56h-20.475c-4.156 0-7.525 3.369-7.525 7.525z" fill="#bf7e68"/><path d="m150 126h-28c-2.211 0-4-1.791-4-4v-48.475c0-6.355 5.172-11.525 11.527-11.525h20.473c2.211 0 4 1.791 4 4v56c0 2.209-1.789 4-4 4zm-24-8h20v-48h-16.473c-1.945 0-3.527 1.582-3.527 3.525z" fill="#4c241d"/><path d="m262 123.914c0-38.676-31.353-70.028-70.029-70.028s-70.029 31.353-70.029 70.028v90.314h140.058z" fill="#6b4f5b"/><path d="m262 218.229h-140.059c-2.211 0-4-1.791-4-4v-90.314c0-40.818 33.211-74.027 74.031-74.027s74.028 33.208 74.028 74.026v90.314c0 2.21-1.789 4.001-4 4.001zm-136.059-8h132.059v-86.314c0-36.408-29.621-66.027-66.027-66.027-36.41 0-66.031 29.619-66.031 66.027v86.314z" fill="#4c241d"/><path d="m121.943 214.229v38.78c0 9.384 7.607 16.992 16.992 16.992h106.074c9.384 0 16.992-7.607 16.992-16.992v-38.78z" fill="#bf7e68"/><path d="m245.008 274h-106.074c-11.574 0-20.992-9.418-20.992-20.992v-38.779c0-2.209 1.789-4 4-4h140.058c2.211 0 4 1.791 4 4v38.779c0 11.574-9.418 20.992-20.992 20.992zm-119.067-55.771v34.779c0 7.164 5.828 12.992 12.992 12.992h106.074c7.164 0 12.992-5.828 12.992-12.992v-34.779z" fill="#4c241d"/><path d="m138 178h108v16h-108z" fill="#bf7e68"/><path d="m246 198h-108c-2.211 0-4-1.791-4-4v-16c0-2.209 1.789-4 4-4h108c2.211 0 4 1.791 4 4v16c0 2.209-1.789 4-4 4zm-104-8h100v-8h-100z" fill="#4c241d"/><path d="m228.022 242.114h-72.044c-7.72 0-13.978-6.258-13.978-13.978v-34.136h100v34.136c0 7.72-6.258 13.978-13.978 13.978z" fill="#edebdc"/><g fill="#4c241d"><path d="m228.023 246.115h-72.047c-9.914 0-17.977-8.064-17.977-17.979v-34.136c0-2.209 1.789-4 4-4h100c2.211 0 4 1.791 4 4v34.137c.001 9.914-8.061 17.978-17.976 17.978zm-82.023-48.115v30.137c0 5.502 4.477 9.979 9.977 9.979h72.047c5.5 0 9.977-4.477 9.977-9.979v-30.137z"/><path d="m230 210c-2.211 0-4-1.791-4-4v-12c0-2.209 1.789-4 4-4s4 1.791 4 4v12c0 2.209-1.789 4-4 4z"/><path d="m246 128c-2.211 0-4-1.791-4-4 0-27.57-22.43-50-50-50s-50 22.43-50 50c0 2.209-1.789 4-4 4s-4-1.791-4-4c0-31.98 26.02-58 58-58s58 26.02 58 58c0 2.209-1.789 4-4 4z"/><path d="m74.727 68.729c-1.023 0-2.047-.391-2.828-1.172l-5.656-5.658c-1.562-1.562-1.562-4.096 0-5.656 1.562-1.562 4.094-1.562 5.656 0l5.656 5.658c1.562 1.562 1.562 4.096 0 5.656-.782.781-1.805 1.172-2.828 1.172z"/><path d="m54.93 48.93c-1.023 0-2.047-.391-2.828-1.172l-5.657-5.658c-1.562-1.562-1.562-4.096 0-5.656 1.562-1.562 4.094-1.562 5.656 0l5.656 5.658c1.562 1.562 1.562 4.096 0 5.656-.78.781-1.804 1.172-2.827 1.172z"/><path d="m69.07 48.93c-1.023 0-2.047-.391-2.828-1.172-1.562-1.561-1.562-4.094 0-5.656l5.656-5.658c1.562-1.562 4.094-1.562 5.656 0 1.562 1.561 1.562 4.094 0 5.656l-5.656 5.658c-.781.781-1.804 1.172-2.828 1.172z"/><path d="m49.273 68.729c-1.023 0-2.047-.391-2.828-1.172-1.562-1.561-1.562-4.094 0-5.656l5.656-5.658c1.562-1.562 4.094-1.562 5.656 0 1.562 1.561 1.562 4.094 0 5.656l-5.656 5.658c-.781.781-1.804 1.172-2.828 1.172z"/><circle cx="70" cy="114" r="4.099"/><circle cx="130" cy="38" r="4.099"/><path d="m54 186c-6.617 0-12-5.383-12-12s5.383-12 12-12 12 5.383 12 12-5.383 12-12 12zm0-16c-2.207 0-4 1.795-4 4s1.793 4 4 4 4-1.795 4-4-1.793-4-4-4z"/></g></svg>