<svg id="allstar" enable-background="new 0 0 300 300" height="512" viewBox="0 0 300 300" width="512" xmlns="http://www.w3.org/2000/svg"><circle cx="139.95" cy="122" fill="#e5efef" r="92"/><g fill="#4c241d"><path d="m216.679 68.729c-1.023 0-2.047-.391-2.828-1.172l-5.658-5.658c-1.562-1.562-1.562-4.094 0-5.656s4.094-1.562 5.656 0l5.658 5.658c1.562 1.562 1.562 4.094 0 5.656-.781.781-1.805 1.172-2.828 1.172z"/><path d="m196.88 48.93c-1.023 0-2.047-.391-2.828-1.172l-5.658-5.658c-1.562-1.562-1.562-4.094 0-5.656s4.094-1.562 5.656 0l5.658 5.658c1.562 1.562 1.562 4.094 0 5.656-.781.781-1.804 1.172-2.828 1.172z"/><path d="m211.021 48.93c-1.023 0-2.047-.391-2.828-1.172-1.562-1.562-1.562-4.094 0-5.656l5.658-5.658c1.562-1.562 4.094-1.562 5.656 0s1.562 4.094 0 5.656l-5.658 5.658c-.781.781-1.805 1.172-2.828 1.172z"/><path d="m191.222 68.729c-1.023 0-2.047-.391-2.828-1.172-1.562-1.562-1.562-4.094 0-5.656l5.658-5.658c1.562-1.562 4.094-1.562 5.656 0s1.562 4.094 0 5.656l-5.658 5.658c-.781.781-1.805 1.172-2.828 1.172z"/><circle cx="183.95" cy="134" r="4.099"/><circle cx="263.95" cy="50" r="4.099"/><path d="m251.95 150c-6.617 0-12-5.383-12-12s5.383-12 12-12 12 5.383 12 12-5.382 12-12 12zm0-16c-2.205 0-4 1.795-4 4s1.795 4 4 4 4-1.795 4-4-1.795-4-4-4z"/></g><path d="m35.95 235.214v17.822c0 7.16 5.804 12.964 12.964 12.964h174.206s32.664 0 40.83-15.587v-10.825c0-6.856-5.967-12.341-13.146-12.083z" fill="#fff"/><path d="m223.12 270h-174.207c-9.354 0-16.963-7.609-16.963-16.963v-17.822c0-2.154 1.705-3.92 3.857-3.998l214.854-7.709c4.547-.131 9.137 1.547 12.406 4.699 3.148 3.039 4.883 7.08 4.883 11.381v10.826c0 .646-.156 1.283-.457 1.855-9.183 17.53-42.941 17.731-44.373 17.731zm-183.17-30.926v13.963c0 4.941 4.021 8.963 8.963 8.963h174.207c8.209-.01 30.395-2.326 36.83-12.645v-9.768c0-2.109-.865-4.105-2.438-5.623-1.713-1.65-4.064-2.547-6.566-2.461z" fill="#4c241d"/><path d="m230.72 209.223c-20.722 7.651-30.588 25.905-33.651 32.777h34.545s15.952 0 26.293-8.324c4.432-3.568 4.105-10.245-.643-13.411-4.861-3.241-13.039-7.311-26.544-11.042z" fill="#fff"/><path d="m231.614 246h-34.544c-1.355 0-2.617-.686-3.355-1.822-.736-1.137-.85-2.568-.299-3.807 3.473-7.787 13.92-26.777 35.92-34.9.787-.289 1.645-.324 2.451-.104 11.721 3.24 21.041 7.133 27.697 11.57 3.344 2.229 5.365 5.775 5.543 9.73.176 3.934-1.504 7.623-4.611 10.125-11.311 9.103-28.093 9.208-28.802 9.208zm-28.015-8h28.016c.141 0 14.699-.127 23.785-7.439 1.1-.887 1.695-2.174 1.635-3.533-.062-1.383-.787-2.633-1.988-3.434-3.961-2.641-11.332-6.512-24.131-10.162-14.294 5.697-22.829 16.777-27.317 24.568z" fill="#4c241d"/><path d="m230.72 208.315c-5.437-1.544-11.73-3.032-19.022-4.385-10.214-1.896-19.927-5.876-28.516-11.677-10.386-7.014-23.941-17.674-34.84-31.403-9.093-11.455-12.392-24.469-12.392-39.048v-23.805l-90.266-.324 4.399 39.266c2.103 18.771-.284 37.739-6.882 55.455-5.3 14.229-9.788 32.993-5.6 49.605h159.469c3.062-7.061 12.928-25.82 33.65-33.684z" fill="#edebdc"/><path d="m197.07 246h-159.469c-1.832 0-3.432-1.246-3.879-3.021-4.547-18.037.607-38.223 5.73-51.98 6.367-17.094 8.668-35.633 6.656-53.613l-4.398-39.269c-.127-1.135.236-2.268.998-3.117.76-.848 1.904-1.312 2.99-1.328l90.266.326c2.205.008 3.986 1.797 3.986 4v23.805c0 15.039 3.662 26.656 11.525 36.559 10.822 13.635 24.434 24.154 33.945 30.578 8.195 5.533 17.281 9.254 27.006 11.057 6.973 1.295 13.494 2.799 19.385 4.471 1.66.471 2.83 1.951 2.904 3.676.074 1.723-.965 3.299-2.576 3.912-19.148 7.266-28.338 24.475-31.4 31.537-.634 1.46-2.076 2.407-3.669 2.407zm-156.245-8h153.678c3.535-7.348 11.16-19.941 24.768-28.445-2.678-.598-5.449-1.162-8.303-1.691-10.812-2.006-20.914-6.143-30.023-12.295-9.979-6.738-24.279-17.799-35.734-32.232-8.922-11.236-13.26-24.822-13.26-41.533v-19.818l-81.791-.297 3.898 34.807c2.152 19.221-.307 39.033-7.109 57.297-4.432 11.9-8.917 28.908-6.124 44.207z" fill="#4c241d"/><circle cx="86.104" cy="194.68" fill="#fff" r="24.252"/><path d="m86.105 222.932c-15.578 0-28.252-12.674-28.252-28.252s12.674-28.252 28.252-28.252c15.576 0 28.25 12.674 28.25 28.252s-12.674 28.252-28.25 28.252zm0-48.504c-11.166 0-20.252 9.086-20.252 20.252s9.086 20.252 20.252 20.252 20.25-9.086 20.25-20.252-9.084-20.252-20.25-20.252z" fill="#4c241d"/><path d="m86.105 208.439c-7.588 0-13.76-6.172-13.76-13.76 0-7.586 6.172-13.758 13.76-13.758 7.586 0 13.758 6.172 13.758 13.758-.001 7.589-6.172 13.76-13.758 13.76zm0-19.517c-3.176 0-5.76 2.582-5.76 5.758s2.584 5.76 5.76 5.76 5.758-2.584 5.758-5.76-2.583-5.758-5.758-5.758z" fill="#f53e28"/><path d="m135.954 178c-1.244 0-2.469-.578-3.25-1.664-1.291-1.793-.883-4.293.91-5.582l13.459-9.684c1.793-1.297 4.289-.883 5.582.91 1.291 1.793.883 4.293-.91 5.582l-13.459 9.684c-.707.51-1.523.754-2.332.754z" fill="#4c241d"/><path d="m147.954 190c-1.244 0-2.469-.578-3.25-1.664-1.291-1.793-.883-4.293.91-5.582l13.283-9.557c1.793-1.295 4.291-.883 5.582.91s.883 4.293-.91 5.582l-13.283 9.557c-.707.51-1.523.754-2.332.754z" fill="#4c241d"/><path d="m159.954 202c-1.244 0-2.469-.578-3.252-1.664-1.289-1.793-.881-4.293.912-5.582l14.484-10.42c1.791-1.295 4.289-.883 5.584.91 1.289 1.793.881 4.293-.912 5.582l-14.484 10.42c-.707.51-1.523.754-2.332.754z" fill="#4c241d"/><path d="m127.954 162c-1.396 0-2.752-.73-3.486-2.033-1.086-1.924-.408-4.363 1.516-5.449l12.574-7.102c1.924-1.088 4.365-.406 5.449 1.516 1.086 1.924.408 4.363-1.516 5.449l-12.574 7.102c-.621.351-1.297.517-1.963.517z" fill="#4c241d"/><path d="m135.95 142h-16c-2.209 0-4-1.791-4-4s1.791-4 4-4h16c2.209 0 4 1.791 4 4s-1.791 4-4 4z" fill="#4c241d"/><path d="m133.009 122h-13.059c-2.209 0-4-1.791-4-4s1.791-4 4-4h13.059c2.209 0 4 1.791 4 4s-1.791 4-4 4z" fill="#4c241d"/></svg>