<svg id="sweater" enable-background="new 0 0 300 300" height="512" viewBox="0 0 300 300" width="512" xmlns="http://www.w3.org/2000/svg"><circle cx="121.95" cy="126.468" fill="#e5efef" r="92"/><path d="m113.95 38.468h68v36h-68z" fill="#c1dbdc"/><path d="m181.95 78.468h-68c-2.211 0-4-1.791-4-4v-36.014c0-2.318 2.09-4.154 4.324-3.986h67.676c2.211 0 4 1.791 4 4v36c0 2.209-1.789 4-4 4zm-64-8h60v-28h-60z" fill="#4c241d"/><path d="m229.95 66.468-46.464-28-14.455 14.506c-11.096 11.134-29.085 11.134-40.18 0l-14.455-14.506-41.455 27.733s-6.909 145.6 20.727 180.267h55.273 55.273c27.636-34.667 25.736-180 25.736-180z" fill="#9dc1e4"/><path d="m204.212 250.468h-110.543c-1.219 0-2.367-.555-3.129-1.506-28.25-35.438-21.879-176.946-21.594-182.952.062-1.268.719-2.43 1.773-3.135l41.453-27.732c1.586-1.062 3.703-.852 5.055.5l14.453 14.506c4.613 4.627 10.742 7.176 17.258 7.176 6.52 0 12.648-2.549 17.262-7.176l14.453-14.506c1.301-1.303 3.328-1.553 4.898-.602l46.465 28c1.184.715 1.914 1.99 1.934 3.373.078 5.992 1.594 147.17-26.609 182.547-.762.952-1.91 1.507-3.129 1.507zm-108.543-8h106.543c23.504-33.268 23.836-155.678 23.754-173.73l-41.859-25.225-12.242 12.285c-6.121 6.143-14.266 9.527-22.926 9.527-8.656 0-16.801-3.385-22.922-9.527l-12.133-12.176-37.031 24.773c-.672 17.295-4.606 140.727 18.816 174.073z" fill="#4c241d"/><path d="m93.95 246.468h112v16h-112z" fill="#c1dbdc"/><g fill="#4c241d"><path d="m205.95 266.468h-112c-2.211 0-4-1.791-4-4v-16c0-2.209 1.789-4 4-4h112c2.211 0 4 1.791 4 4v16c0 2.209-1.789 4-4 4zm-108-8h104v-8h-104z"/><path d="m264.888 59.403c-1.023 0-2.047-.391-2.828-1.17l-4.863-4.859c-1.562-1.562-1.562-4.094 0-5.658 1.562-1.562 4.094-1.561 5.656-.002l4.863 4.859c1.562 1.562 1.562 4.094 0 5.658-.781.781-1.805 1.172-2.828 1.172z"/><path d="m247.876 42.391c-1.023 0-2.047-.391-2.828-1.17l-4.863-4.859c-1.562-1.562-1.562-4.094 0-5.658 1.562-1.562 4.094-1.561 5.656-.002l4.863 4.859c1.562 1.562 1.562 4.094 0 5.658-.781.782-1.804 1.172-2.828 1.172z"/><path d="m260.025 42.391c-1.023 0-2.047-.391-2.828-1.172-1.562-1.564-1.562-4.096 0-5.658l4.863-4.859c1.562-1.559 4.094-1.561 5.656.002 1.562 1.564 1.562 4.096 0 5.658l-4.863 4.859c-.782.78-1.805 1.17-2.828 1.17z"/><path d="m243.013 59.403c-1.023 0-2.047-.391-2.828-1.172-1.562-1.564-1.562-4.096 0-5.658l4.863-4.859c1.562-1.559 4.094-1.561 5.656.002 1.562 1.564 1.562 4.096 0 5.658l-4.863 4.859c-.781.779-1.805 1.17-2.828 1.17z"/><circle cx="265.95" cy="98.468" r="4.099"/><circle cx="65.95" cy="38.468" r="4.099"/><path d="m41.95 82.468c-6.617 0-12-5.383-12-12s5.383-12 12-12 12 5.383 12 12-5.382 12-12 12zm0-16c-2.207 0-4 1.795-4 4s1.793 4 4 4 4-1.795 4-4-1.793-4-4-4z"/><path d="m185.95 110.468c-1.023 0-2.047-.391-2.828-1.172l-8-8c-1.562-1.562-1.562-4.094 0-5.656s4.094-1.562 5.656 0l5.172 5.172 5.172-5.172c1.562-1.562 4.094-1.562 5.656 0s1.562 4.094 0 5.656l-8 8c-.781.781-1.804 1.172-2.828 1.172z"/><path d="m193.95 118.468c-1.023 0-2.047-.391-2.828-1.172l-5.172-5.172-5.172 5.172c-1.562 1.562-4.094 1.562-5.656 0s-1.562-4.094 0-5.656l8-8c1.562-1.562 4.094-1.562 5.656 0l8 8c1.562 1.562 1.562 4.094 0 5.656-.781.781-1.804 1.172-2.828 1.172z"/><path d="m117.95 110.468c-1.023 0-2.047-.391-2.828-1.172l-8-8c-1.562-1.562-1.562-4.094 0-5.656s4.094-1.562 5.656 0l5.172 5.172 5.172-5.172c1.562-1.562 4.094-1.562 5.656 0s1.562 4.094 0 5.656l-8 8c-.781.781-1.804 1.172-2.828 1.172z"/><path d="m125.95 118.468c-1.023 0-2.047-.391-2.828-1.172l-5.172-5.172-5.172 5.172c-1.562 1.562-4.094 1.562-5.656 0s-1.562-4.094 0-5.656l8-8c1.562-1.562 4.094-1.562 5.656 0l8 8c1.562 1.562 1.562 4.094 0 5.656-.781.781-1.804 1.172-2.828 1.172z"/><path d="m185.95 170.468c-1.023 0-2.047-.391-2.828-1.172l-8-8c-1.562-1.562-1.562-4.094 0-5.656s4.094-1.562 5.656 0l5.172 5.172 5.172-5.172c1.562-1.562 4.094-1.562 5.656 0s1.562 4.094 0 5.656l-8 8c-.781.781-1.804 1.172-2.828 1.172z"/><path d="m193.95 178.468c-1.023 0-2.047-.391-2.828-1.172l-5.172-5.172-5.172 5.172c-1.562 1.562-4.094 1.562-5.656 0s-1.562-4.094 0-5.656l8-8c1.562-1.562 4.094-1.562 5.656 0l8 8c1.562 1.562 1.562 4.094 0 5.656-.781.781-1.804 1.172-2.828 1.172z"/><path d="m117.95 170.468c-1.023 0-2.047-.391-2.828-1.172l-8-8c-1.562-1.562-1.562-4.094 0-5.656s4.094-1.562 5.656 0l5.172 5.172 5.172-5.172c1.562-1.562 4.094-1.562 5.656 0s1.562 4.094 0 5.656l-8 8c-.781.781-1.804 1.172-2.828 1.172z"/><path d="m125.95 178.468c-1.023 0-2.047-.391-2.828-1.172l-5.172-5.172-5.172 5.172c-1.562 1.562-4.094 1.562-5.656 0s-1.562-4.094 0-5.656l8-8c1.562-1.562 4.094-1.562 5.656 0l8 8c1.562 1.562 1.562 4.094 0 5.656-.781.781-1.804 1.172-2.828 1.172z"/><path d="m149.95 138.468c-1.023 0-2.047-.391-2.828-1.172l-8-8c-1.562-1.562-1.562-4.094 0-5.656s4.094-1.562 5.656 0l5.172 5.172 5.172-5.172c1.562-1.562 4.094-1.562 5.656 0s1.562 4.094 0 5.656l-8 8c-.781.781-1.804 1.172-2.828 1.172z"/><path d="m157.95 146.468c-1.023 0-2.047-.391-2.828-1.172l-5.172-5.172-5.172 5.172c-1.562 1.562-4.094 1.562-5.656 0s-1.562-4.094 0-5.656l8-8c1.562-1.562 4.094-1.562 5.656 0l8 8c1.562 1.562 1.562 4.094 0 5.656-.781.781-1.804 1.172-2.828 1.172z"/><path d="m149.95 206.468c-1.023 0-2.047-.391-2.828-1.172l-8-8c-1.562-1.562-1.562-4.094 0-5.656s4.094-1.562 5.656 0l5.172 5.172 5.172-5.172c1.562-1.562 4.094-1.562 5.656 0s1.562 4.094 0 5.656l-8 8c-.781.781-1.804 1.172-2.828 1.172z"/><path d="m157.95 214.468c-1.023 0-2.047-.391-2.828-1.172l-5.172-5.172-5.172 5.172c-1.562 1.562-4.094 1.562-5.656 0s-1.562-4.094 0-5.656l8-8c1.562-1.562 4.094-1.562 5.656 0l8 8c1.562 1.562 1.562 4.094 0 5.656-.781.781-1.804 1.172-2.828 1.172z"/></g><path d="m229.95 66.468c-14.993 9.98-16.601 26.803-15.753 35.582.478 4.947-.224 11.448-.247 16.418l.468 94.07c.055 11.118 1.186 22.204 3.375 33.104l.969 4.826h38.492c3.191-108.868-27.304-184-27.304-184z" fill="#9dc1e4"/><path d="m257.255 254.468h-38.492c-1.906 0-3.547-1.344-3.922-3.213l-.969-4.826c-2.234-11.119-3.398-22.516-3.453-33.871l-.469-94.07c.008-1.848.102-3.854.203-5.918.168-3.551.344-7.223.062-10.133-.59-6.094-1.062-26.928 17.52-39.299 1-.668 2.238-.854 3.395-.492 1.145.354 2.074 1.205 2.527 2.318.309.758 30.773 77.166 27.598 185.621-.066 2.162-1.836 3.883-4 3.883zm-35.215-8h31.316c1.965-89.088-18.82-155.246-25.25-173.467-10.734 10.016-10.359 24.195-9.93 28.664.34 3.484.148 7.451-.035 11.287-.09 1.943-.184 3.832-.191 5.535l.469 94.031c.055 10.84 1.164 21.719 3.297 32.334z" fill="#4c241d"/><path d="m218.763 250.468 3.214 16h34.599c.319-5.418.525-10.735.679-16z" fill="#c1dbdc"/><path d="m256.575 270.468h-34.598c-1.906 0-3.547-1.344-3.922-3.213l-3.215-16c-.234-1.174.066-2.395.828-3.322.758-.928 1.895-1.465 3.094-1.465h38.492c1.082 0 2.117.438 2.867 1.213.754.775 1.164 1.822 1.133 2.902-.156 5.307-.363 10.662-.688 16.121-.123 2.113-1.873 3.764-3.991 3.764zm-31.32-8h27.531c.137-2.688.246-5.352.34-8h-29.48z" fill="#4c241d"/><path d="m83.14 246.432c2.391-11.423 3.567-23.049 3.512-34.699l-.445-93.518c-.024-5.072.131-10.152.738-15.19 1.014-8.421 1.014-26.557-15.206-36.921 0 0-32.767 75.464-29.535 184.364h40.092z" fill="#9dc1e4"/><path d="m82.294 254.468h-40.09c-2.164 0-3.934-1.719-4-3.881-3.218-108.537 29.535-185.313 29.867-186.077.465-1.074 1.379-1.891 2.5-2.232s2.336-.172 3.32.455c18.387 11.746 18.027 32.426 17.023 40.77-.516 4.266-.738 8.934-.707 14.691l.445 93.52c.055 11.91-1.152 23.867-3.598 35.537v.004l-.848 4.035c-.385 1.851-2.021 3.178-3.912 3.178zm-36.191-8h32.945l.18-.854c2.324-11.121 3.48-22.514 3.426-33.861l-.445-93.518c-.031-6.098.211-11.082.762-15.688.922-7.623.715-20.949-9.449-30.088-6.783 17.885-29.376 84.548-27.419 174.009zm37.039-.036h.039z" fill="#4c241d"/><path d="m42.203 250.468c.156 5.266.368 10.583.7 16h36.043l3.348-16z" fill="#c1dbdc"/><path d="m78.946 270.468h-36.042c-2.113 0-3.863-1.645-3.992-3.756-.336-5.461-.547-10.818-.707-16.125-.031-1.082.375-2.129 1.129-2.906.754-.775 1.789-1.213 2.871-1.213h40.09c1.203 0 2.344.543 3.105 1.479.758.934 1.055 2.162.809 3.34l-3.348 16c-.387 1.852-2.02 3.181-3.915 3.181zm-32.261-8h29.012l1.676-8h-31.036c.094 2.648.207 5.312.348 8z" fill="#4c241d"/></svg>