<svg id="t_x5F_shirt1" enable-background="new 0 0 300 300" height="512" viewBox="0 0 300 300" width="512" xmlns="http://www.w3.org/2000/svg"><circle cx="122" cy="120" fill="#e5efef" r="92"/><path d="m218 72.559v67.11l13.337 8.331 30.663-30z" fill="#e7d1c4"/><path d="m231.336 152c-.729 0-1.463-.199-2.117-.607l-13.338-8.33c-1.17-.73-1.881-2.014-1.881-3.393v-67.111c0-1.629.988-3.096 2.5-3.707 1.5-.615 3.24-.25 4.373.924l44 45.441c1.531 1.582 1.498 4.104-.076 5.643l-30.662 30c-.768.751-1.78 1.14-2.799 1.14zm-9.336-14.549 8.789 5.49 25.568-25.018-34.357-35.484z" fill="#4c241d"/><path d="m126 64c17.144-3.444 36.027-2.956 56 0v40h-56z" fill="#b5a19c"/><path d="m182 108h-56c-2.209 0-4-1.791-4-4v-40c0-1.906 1.344-3.547 3.213-3.922 16.443-3.305 35.211-3.312 57.373-.035 1.961.291 3.414 1.975 3.414 3.957v40c0 2.209-1.791 4-4 4zm-52-8h48v-32.525c-18.324-2.463-34.098-2.508-48-.148z" fill="#4c241d"/><path d="m90 72.559v67.11l-13.337 8.331-30.663-30z" fill="#e7d1c4"/><path d="m76.664 152c-1.02 0-2.031-.389-2.799-1.141l-30.662-30c-1.574-1.539-1.607-4.061-.076-5.643l44-45.441c1.133-1.172 2.863-1.537 4.373-.924 1.512.611 2.5 2.078 2.5 3.707v67.111c0 1.379-.711 2.662-1.881 3.393l-13.338 8.33c-.654.409-1.388.608-2.117.608zm-25.021-34.076 25.568 25.018 8.789-5.49v-55.013z" fill="#4c241d"/><path d="m181.903 64.056c-.987 14.701-13.085 26.327-27.903 26.327-14.837 0-26.946-11.655-27.906-26.383-12.003 1.597-24.033 4.205-36.094 7.929v196.071h128v-196.071c-12.004-3.646-24.037-6.256-36.097-7.873z" fill="#e7d1c4"/><path d="m218 272h-128c-2.209 0-4-1.791-4-4v-196.07c0-1.754 1.143-3.305 2.82-3.822 12.014-3.709 24.377-6.426 36.746-8.072 1.098-.148 2.207.168 3.062.871.857.703 1.385 1.729 1.457 2.834.828 12.697 11.332 22.643 23.914 22.643 12.559 0 23.061-9.924 23.912-22.594.074-1.105.602-2.129 1.459-2.83.857-.699 1.963-1.018 3.062-.867 12.307 1.65 24.664 4.346 36.729 8.01 1.686.514 2.838 2.066 2.838 3.828v196.069c.001 2.209-1.79 4-3.999 4zm-124-8h120v-189.084c-9.453-2.738-19.07-4.861-28.678-6.328-2.99 14.766-16.012 25.795-31.322 25.795-15.342 0-28.367-11.053-31.334-25.854-9.641 1.467-19.254 3.605-28.666 6.373z" fill="#4c241d"/><path d="m130.084 189.054s6.126-61.822 57.293-68.558c20.075 47.544-30.153 84.104-30.153 84.104z" fill="#fff"/><path d="m157.225 208.6c-.684 0-1.369-.176-1.988-.529l-27.141-15.545c-1.367-.783-2.148-2.297-1.992-3.865.064-.65 7.061-65.061 60.752-72.129 1.785-.236 3.504.75 4.207 2.408 21.066 49.891-30.955 88.51-31.484 88.895-.698.507-1.526.765-2.354.765zm-22.809-21.674 22.453 12.861c3.852-3.17 12.551-10.938 19.758-21.818 11.777-17.779 14.529-35.604 8.201-53.023-18.227 3.354-32.209 14.746-41.588 33.9-5.738 11.72-8.039 23.154-8.824 28.08z" fill="#4c241d"/><circle cx="169.279" cy="154.059" fill="#c1dbdc" r="8.246"/><path d="m169.258 166.303c-2.062 0-4.152-.521-6.066-1.617-2.838-1.625-4.873-4.26-5.73-7.416-.857-3.158-.436-6.459 1.191-9.297 1.625-2.838 4.26-4.875 7.416-5.732 3.158-.859 6.457-.434 9.297 1.193 2.838 1.625 4.875 4.26 5.732 7.416.855 3.156.434 6.457-1.193 9.297-2.26 3.943-6.397 6.156-10.647 6.156zm.027-16.492c-.375 0-.75.051-1.119.15-1.096.297-2.008 1.004-2.572 1.988-1.164 2.031-.457 4.631 1.574 5.795 2.035 1.162 4.633.459 5.795-1.574.564-.984.711-2.131.414-3.225s-1.004-2.006-1.988-2.57c-.651-.373-1.373-.564-2.104-.564zm7.149 8.347h.039z" fill="#4c241d"/><path d="m177.22 184.354 5.878 13.939c1.87 4.434.788 9.581-2.759 12.833-5.065 4.645-12.847 10.739-20.71 12.875l-2.404-19.4z" fill="#f53e28"/><path d="m159.629 228c-.787 0-1.562-.232-2.229-.68-.963-.645-1.598-1.678-1.74-2.828l-2.404-19.4c-.152-1.215.262-2.432 1.123-3.303l19.996-20.246c.939-.951 2.291-1.377 3.602-1.117 1.312.252 2.41 1.143 2.93 2.373l5.877 13.939c2.529 5.998 1.025 12.965-3.742 17.336-5.451 4.998-13.756 11.449-22.363 13.785-.347.094-.699.141-1.05.141zm1.805-21.969 1.545 12.475c5.549-2.576 10.855-6.844 14.656-10.328 2.281-2.094 2.996-5.439 1.777-8.33l-3.551-8.424z" fill="#4c241d"/><path d="m137.433 161.563-14.997 1.982c-4.771.63-8.663 4.167-9.674 8.872-1.444 6.719-2.764 16.515-.629 24.377l17.95-7.74z" fill="#f53e28"/><g fill="#4c241d"><path d="m112.135 200.795c-.596 0-1.189-.133-1.736-.396-1.045-.504-1.82-1.436-2.123-2.555-2.34-8.605-.979-19.033.576-26.266 1.359-6.324 6.607-11.145 13.059-11.998l15-1.982c1.316-.184 2.646.322 3.529 1.326.881 1.004 1.203 2.381.859 3.672l-7.35 27.492c-.316 1.182-1.158 2.154-2.281 2.641l-17.949 7.74c-.506.217-1.045.326-1.584.326zm19.888-34.483-9.064 1.197c-3.109.412-5.637 2.723-6.287 5.75-1.082 5.039-2.078 11.777-1.492 17.865l11.541-4.977z"/><path d="m135.877 214.396c-.674 0-1.357-.17-1.984-.529-1.916-1.098-2.58-3.541-1.482-5.459l20.404-35.621c1.098-1.916 3.541-2.58 5.459-1.482 1.916 1.098 2.58 3.541 1.482 5.459l-20.404 35.621c-.739 1.289-2.088 2.011-3.475 2.011z"/><path d="m62.729 66.729c-1.023 0-2.047-.391-2.828-1.172l-5.658-5.658c-1.562-1.562-1.562-4.094 0-5.656s4.094-1.562 5.656 0l5.658 5.658c1.562 1.562 1.562 4.094 0 5.656-.782.781-1.805 1.172-2.828 1.172z"/><path d="m42.93 46.93c-1.023 0-2.047-.391-2.828-1.172l-5.659-5.658c-1.562-1.562-1.562-4.094 0-5.656s4.094-1.562 5.656 0l5.658 5.658c1.562 1.562 1.562 4.094 0 5.656-.78.781-1.804 1.172-2.827 1.172z"/><path d="m57.07 46.93c-1.023 0-2.047-.391-2.828-1.172-1.562-1.562-1.562-4.094 0-5.656l5.658-5.658c1.562-1.562 4.094-1.562 5.656 0s1.562 4.094 0 5.656l-5.658 5.658c-.781.781-1.804 1.172-2.828 1.172z"/><path d="m37.271 66.729c-1.023 0-2.047-.391-2.828-1.172-1.562-1.562-1.562-4.094 0-5.656l5.658-5.658c1.562-1.562 4.094-1.562 5.656 0s1.562 4.094 0 5.656l-5.657 5.658c-.782.781-1.805 1.172-2.829 1.172z"/><circle cx="250" cy="48" r="4.099"/><circle cx="50" cy="168" r="4.099"/><path d="m258 196c-6.617 0-12-5.383-12-12s5.383-12 12-12 12 5.383 12 12-5.383 12-12 12zm0-16c-2.205 0-4 1.795-4 4s1.795 4 4 4 4-1.795 4-4-1.795-4-4-4z"/></g></svg>